<?xml version="1.0" encoding="UTF-8" standalone="no"?>
<!-- Created with Inkscape (http://www.inkscape.org/) -->

<svg
   xmlns:dc="http://purl.org/dc/elements/1.1/"
   xmlns:cc="http://creativecommons.org/ns#"
   xmlns:rdf="http://www.w3.org/1999/02/22-rdf-syntax-ns#"
   xmlns:svg="http://www.w3.org/2000/svg"
   xmlns="http://www.w3.org/2000/svg"
   xmlns:sodipodi="http://sodipodi.sourceforge.net/DTD/sodipodi-0.dtd"
   xmlns:inkscape="http://www.inkscape.org/namespaces/inkscape"
   width="1000"
   height="639.62598"
   viewBox="0 0 264.58333 169.23437"
   version="1.1"
   id="svg17825"
   inkscape:version="0.92.2 (5c3e80d, 2017-08-06)"
   sodipodi:docname="Discover Acceptance Mark (Flat).svg">
  <defs
     id="defs17819" />
  <sodipodi:namedview
     id="base"
     pagecolor="#ffffff"
     bordercolor="#666666"
     borderopacity="1.0"
     inkscape:pageopacity="0.0"
     inkscape:pageshadow="2"
     inkscape:zoom="0.35"
     inkscape:cx="433.40377"
     inkscape:cy="211.62241"
     inkscape:document-units="px"
     inkscape:current-layer="layer1"
     showgrid="false"
     units="px"
     inkscape:window-width="1366"
     inkscape:window-height="705"
     inkscape:window-x="-8"
     inkscape:window-y="-8"
     inkscape:window-maximized="1" />
  <metadata
     id="metadata17822">
    <rdf:RDF>
      <cc:Work
         rdf:about="">
        <dc:format>image/svg+xml</dc:format>
        <dc:type
           rdf:resource="http://purl.org/dc/dcmitype/StillImage" />
        <dc:title></dc:title>
      </cc:Work>
    </rdf:RDF>
  </metadata>
  <g
     inkscape:label="Layer 1"
     inkscape:groupmode="layer"
     id="layer1"
     transform="translate(0,-127.76561)">
    <path
       d="m 262.70036,221.7763 c 0,0 -71.78313,50.65288 -203.254651,73.32294 H 262.70036 V 221.7763"
       style="fill:#f46f1b;fill-opacity:1;fill-rule:nonzero;stroke:none;stroke-width:0.14791796"
       id="path16"
       inkscape:connector-curvature="0" />
    <path
       d="m 262.67227,129.68554 c 0,1.87706 0,163.50985 0,165.39756 -1.89484,0 -258.8615917,0 -260.7614591,0 0,-1.87723 -0.00839,-163.50419 -0.00839,-165.39165 1.9056117,0 258.8556791,-0.004 260.7712291,-0.004 z M 263.6278,127.76706 0,127.79221 v 169.20778 h 264.58333 l -0.0168,-169.2344 h -0.94077"
       style="fill:#000000;fill-opacity:1;fill-rule:nonzero;stroke:none;stroke-width:0.14791796"
       id="path18"
       inkscape:connector-curvature="0" />
    <path
       d="m 31.860211,208.31429 c -2.346459,2.11819 -5.39444,3.04265 -10.220273,3.04265 h -2.003852 v -25.31761 h 2.003852 c 4.825833,0 7.75356,0.86383 10.220273,3.0959 2.582773,2.30013 4.136512,5.86346 4.136512,9.53183 0,3.67429 -1.553739,7.3471 -4.136512,9.64723 z M 23.135857,179.55162 H 12.17381 v 38.28712 h 10.904352 c 5.79822,0 9.985635,-1.36824 13.660965,-4.41979 4.367711,-3.61512 6.950526,-9.06293 6.950526,-14.69713 0,-11.29945 -8.44242,-19.1702 -20.553796,-19.1702"
       style="fill:#000000;fill-opacity:1;fill-rule:nonzero;stroke:none;stroke-width:0.14791796"
       id="path20-7"
       inkscape:connector-curvature="0" />
    <path
       d="m 47.125775,217.83874 h 7.468063 v -38.28712 h -7.468063 v 38.28712"
       style="fill:#000000;fill-opacity:1;fill-rule:nonzero;stroke:none;stroke-width:0.14791796"
       id="path22"
       inkscape:connector-curvature="0" />
    <path
       d="m 72.854762,194.24434 c -4.481299,-1.65818 -5.797633,-2.75275 -5.797633,-4.82067 0,-2.41103 2.344781,-4.24377 5.563624,-4.24377 2.237274,0 4.07647,0.92006 6.021914,3.10039 l 3.907662,-5.11649 c -3.211422,-2.80898 -7.052583,-4.24523 -11.250313,-4.24523 -6.774213,0 -11.941562,4.70524 -11.941562,10.97106 0,5.27473 2.405998,7.97423 9.420006,10.49923 2.923576,1.03096 4.411486,1.71877 5.162611,2.18029 1.491893,0.97478 2.239035,2.35338 2.239035,3.96125 0,3.10181 -2.46667,5.40047 -5.79822,5.40047 -3.562162,0 -6.431062,-1.78091 -8.151178,-5.10613 l -4.82403,4.64612 c 3.44086,5.04991 7.572634,7.2879 13.255339,7.2879 7.76052,0 13.205233,-5.15939 13.205233,-12.57156 0,-6.08237 -2.517573,-8.8366 -11.012488,-11.94286"
       style="fill:#000000;fill-opacity:1;fill-rule:nonzero;stroke:none;stroke-width:0.14791796"
       id="path24"
       inkscape:connector-curvature="0" />
    <path
       d="m 86.222849,198.72182 c 0,11.25359 8.83618,19.97924 20.208091,19.97924 3.21574,0 5.96849,-0.63158 9.3647,-2.23056 v -8.79077 c -2.98647,2.98793 -5.63122,4.19345 -9.01707,4.19345 -7.521644,0 -12.859981,-5.45373 -12.859981,-13.20612 0,-7.35149 5.508445,-13.14988 12.512351,-13.14988 3.56338,0 6.25844,1.27059 9.3647,4.30737 v -8.78632 c -3.27935,-1.66263 -5.97441,-2.35191 -9.18717,-2.35191 -11.314258,0 -20.385621,8.90318 -20.385621,20.0355"
       style="fill:#000000;fill-opacity:1;fill-rule:nonzero;stroke:none;stroke-width:0.14791796"
       id="path26"
       inkscape:connector-curvature="0" />
    <path
       d="m 175.00868,205.26865 -10.2108,-25.71703 h -8.15767 l 16.24734,39.26928 h 4.0189 l 16.54018,-39.26928 h -8.09554 l -10.34241,25.71703"
       style="fill:#000000;fill-opacity:1;fill-rule:nonzero;stroke:none;stroke-width:0.14791796"
       id="path28"
       inkscape:connector-curvature="0" />
    <path
       d="m 196.82363,217.83874 h 21.17888 v -6.4818 h -13.71643 v -10.33503 h 13.21055 v -6.48469 h -13.21055 v -8.49789 h 13.71643 v -6.48771 h -21.17888 v 38.28712"
       style="fill:#000000;fill-opacity:1;fill-rule:nonzero;stroke:none;stroke-width:0.14791796"
       id="path30"
       inkscape:connector-curvature="0" />
    <path
       d="m 232.59016,197.17756 h -2.18176 v -11.59531 h 2.30013 c 4.65053,0 7.17845,1.94956 7.17845,5.67562 0,3.84883 -2.52792,5.91969 -7.29682,5.91969 z m 14.98116,-6.32204 c 0,-7.1681 -4.93602,-11.3039 -13.54931,-11.3039 h -11.07312 v 38.28712 h 7.45951 V 202.4582 h 0.97327 l 10.33654,15.38054 h 9.1842 l -12.05234,-16.12898 c 5.6253,-1.14488 8.72125,-4.99225 8.72125,-10.85424"
       style="fill:#000000;fill-opacity:1;fill-rule:nonzero;stroke:none;stroke-width:0.14791796"
       id="path32"
       inkscape:connector-curvature="0" />
    <path
       d="m 251.42607,181.2867 h -0.13628 v -0.87863 h 0.14508 c 0.39623,0 0.60353,0.14214 0.60353,0.43191 0,0.29728 -0.21006,0.44672 -0.61238,0.44672 z m 1.41554,-0.45854 c 0,-0.67154 -0.46299,-1.03838 -1.27357,-1.03838 h -1.08128 v 3.36513 h 0.8032 v -1.30463 l 0.94224,1.30463 h 0.98069 l -1.10643,-1.38744 c 0.47334,-0.12705 0.73515,-0.47188 0.73515,-0.93931"
       style="fill:#000000;fill-opacity:1;fill-rule:nonzero;stroke:none;stroke-width:0.14791796"
       id="path34"
       inkscape:connector-curvature="0" />
    <path
       d="m 251.71743,183.87526 c -1.28539,0 -2.3371,-1.06941 -2.3371,-2.40512 0,-1.34015 1.03838,-2.4096 2.3371,-2.4096 1.27952,0 2.32231,1.09461 2.32231,2.4096 0,1.32384 -1.04279,2.40512 -2.32231,2.40512 z m 0.0126,-5.34278 c -1.63449,0 -2.93028,1.30463 -2.93028,2.93322 0,1.62858 1.31055,2.93469 2.93028,2.93469 1.59156,0 2.8962,-1.31944 2.8962,-2.93469 0,-1.6064 -1.30464,-2.93322 -2.8962,-2.93322"
       style="fill:#000000;fill-opacity:1;fill-rule:nonzero;stroke:none;stroke-width:0.14791796"
       id="path36"
       inkscape:connector-curvature="0" />
    <path
       style="clip-rule:evenodd;fill:#f46f1b;fill-opacity:1;stroke-width:0.14791796"
       id="path42"
       d="m 118.22742,198.8357 c 0,0 0,0 0,-0.0126 0,-11.24914 9.11912,-20.35497 20.3683,-20.35497 11.24914,0 20.3683,9.10583 20.3683,20.35497 0,0.0126 0,0.0126 0,0.0126 0,11.24914 -9.11916,20.3683 -20.3683,20.3683 -11.24918,0 -20.3683,-9.11916 -20.3683,-20.3683"
       inkscape:connector-curvature="0" />
  </g>
</svg>
